<mxfile host="app.diagrams.net" modified="2021-10-06T06:09:51.928Z" agent="5.0 (Macintosh; Intel Mac OS X 10_15_7) AppleWebKit/537.36 (KHTML, like Gecko) Chrome/94.0.4606.61 Safari/537.36" etag="5PKPGj-rjG3me46mYdJi" version="15.4.1" type="github">
  <diagram id="FyzgZ836kgvVsch6gkGj" name="Page-1">
    <mxGraphModel dx="908" dy="513" grid="1" gridSize="10" guides="1" tooltips="1" connect="1" arrows="1" fold="1" page="1" pageScale="1" pageWidth="850" pageHeight="1100" math="0" shadow="0">
      <root>
        <mxCell id="0" />
        <mxCell id="1" parent="0" />
        <mxCell id="vWCauvzo7gH51iAdeTeT-35" value="" style="endArrow=classic;html=1;startSize=6;endSize=6;targetPerimeterSpacing=8;startArrow=none;entryX=0.513;entryY=0;entryDx=0;entryDy=0;entryPerimeter=0;" parent="1" source="vWCauvzo7gH51iAdeTeT-30" target="vWCauvzo7gH51iAdeTeT-38" edge="1">
          <mxGeometry width="50" height="50" relative="1" as="geometry">
            <mxPoint x="404.5" y="1150" as="sourcePoint" />
            <mxPoint x="404.5" y="1358" as="targetPoint" />
          </mxGeometry>
        </mxCell>
        <mxCell id="vWCauvzo7gH51iAdeTeT-31" value="" style="endArrow=classic;html=1;startSize=6;endSize=6;sourcePerimeterSpacing=8;targetPerimeterSpacing=8;entryX=0.945;entryY=0.227;entryDx=0;entryDy=0;entryPerimeter=0;" parent="1" edge="1" target="pvBQROD-User7r6prkA2-7">
          <mxGeometry width="50" height="50" relative="1" as="geometry">
            <mxPoint x="730" y="660" as="sourcePoint" />
            <mxPoint x="530" y="770" as="targetPoint" />
            <Array as="points" />
          </mxGeometry>
        </mxCell>
        <mxCell id="vWCauvzo7gH51iAdeTeT-1" value="" style="ellipse;whiteSpace=wrap;html=1;hachureGap=4;pointerEvents=0;" parent="1" vertex="1">
          <mxGeometry x="350" y="340" width="145" height="100" as="geometry" />
        </mxCell>
        <mxCell id="vWCauvzo7gH51iAdeTeT-2" value="SACROSANCT TOKEN" style="text;html=1;strokeColor=none;fillColor=none;align=center;verticalAlign=middle;whiteSpace=wrap;rounded=0;hachureGap=4;pointerEvents=0;" parent="1" vertex="1">
          <mxGeometry x="405" y="380" width="40" height="20" as="geometry" />
        </mxCell>
        <mxCell id="vWCauvzo7gH51iAdeTeT-4" value="Buyer" style="shape=umlActor;verticalLabelPosition=bottom;verticalAlign=top;html=1;outlineConnect=0;hachureGap=4;pointerEvents=0;" parent="1" vertex="1">
          <mxGeometry x="82.5" y="590" width="30" height="60" as="geometry" />
        </mxCell>
        <mxCell id="vWCauvzo7gH51iAdeTeT-5" value="Seller" style="shape=umlActor;verticalLabelPosition=bottom;verticalAlign=top;html=1;outlineConnect=0;hachureGap=4;pointerEvents=0;" parent="1" vertex="1">
          <mxGeometry x="732.5" y="600" width="30" height="60" as="geometry" />
        </mxCell>
        <mxCell id="vWCauvzo7gH51iAdeTeT-8" value="DEX" style="rounded=1;whiteSpace=wrap;html=1;hachureGap=4;pointerEvents=0;" parent="1" vertex="1">
          <mxGeometry x="367.5" y="600" width="120" height="60" as="geometry" />
        </mxCell>
        <mxCell id="vWCauvzo7gH51iAdeTeT-9" value="" style="endArrow=classic;html=1;startSize=6;endSize=6;sourcePerimeterSpacing=8;targetPerimeterSpacing=8;exitX=0;exitY=0.5;exitDx=0;exitDy=0;" parent="1" edge="1" source="vWCauvzo7gH51iAdeTeT-8">
          <mxGeometry width="50" height="50" relative="1" as="geometry">
            <mxPoint x="122.5" y="630" as="sourcePoint" />
            <mxPoint x="120" y="630" as="targetPoint" />
          </mxGeometry>
        </mxCell>
        <mxCell id="vWCauvzo7gH51iAdeTeT-10" value="" style="endArrow=classic;html=1;startSize=6;endSize=6;sourcePerimeterSpacing=8;targetPerimeterSpacing=8;entryX=1;entryY=0.5;entryDx=0;entryDy=0;" parent="1" source="vWCauvzo7gH51iAdeTeT-5" target="vWCauvzo7gH51iAdeTeT-8" edge="1">
          <mxGeometry width="50" height="50" relative="1" as="geometry">
            <mxPoint x="502.5" y="780" as="sourcePoint" />
            <mxPoint x="492.5" y="630" as="targetPoint" />
          </mxGeometry>
        </mxCell>
        <mxCell id="vWCauvzo7gH51iAdeTeT-13" value="14% to LP" style="text;html=1;strokeColor=none;fillColor=none;align=center;verticalAlign=middle;whiteSpace=wrap;rounded=0;hachureGap=4;pointerEvents=0;" parent="1" vertex="1">
          <mxGeometry x="396.57" y="820" width="70" height="20" as="geometry" />
        </mxCell>
        <mxCell id="vWCauvzo7gH51iAdeTeT-15" value="" style="endArrow=classic;html=1;startSize=6;endSize=6;sourcePerimeterSpacing=8;targetPerimeterSpacing=8;exitX=0.5;exitY=1;exitDx=0;exitDy=0;entryX=0.451;entryY=-0.063;entryDx=0;entryDy=0;entryPerimeter=0;" parent="1" source="vWCauvzo7gH51iAdeTeT-1" target="vWCauvzo7gH51iAdeTeT-8" edge="1">
          <mxGeometry width="50" height="50" relative="1" as="geometry">
            <mxPoint x="470" y="550" as="sourcePoint" />
            <mxPoint x="520" y="500" as="targetPoint" />
          </mxGeometry>
        </mxCell>
        <mxCell id="vWCauvzo7gH51iAdeTeT-16" value="User" style="shape=umlActor;verticalLabelPosition=bottom;verticalAlign=top;html=1;outlineConnect=0;hachureGap=4;pointerEvents=0;" parent="1" vertex="1">
          <mxGeometry x="407.5" y="140" width="30" height="60" as="geometry" />
        </mxCell>
        <mxCell id="vWCauvzo7gH51iAdeTeT-19" value="" style="endArrow=classic;html=1;startSize=6;endSize=6;sourcePerimeterSpacing=8;targetPerimeterSpacing=8;entryX=0.5;entryY=0;entryDx=0;entryDy=0;" parent="1" source="vWCauvzo7gH51iAdeTeT-16" target="vWCauvzo7gH51iAdeTeT-1" edge="1">
          <mxGeometry width="50" height="50" relative="1" as="geometry">
            <mxPoint x="420" y="210" as="sourcePoint" />
            <mxPoint x="560" y="330" as="targetPoint" />
          </mxGeometry>
        </mxCell>
        <mxCell id="vWCauvzo7gH51iAdeTeT-21" value="&lt;b&gt;USER CAN PURCHASE MAX 4% OF TOTAL SUPPLY&lt;/b&gt;" style="text;html=1;strokeColor=none;fillColor=none;align=center;verticalAlign=middle;whiteSpace=wrap;rounded=0;hachureGap=4;pointerEvents=0;" parent="1" vertex="1">
          <mxGeometry x="358.13" y="80" width="128.75" height="50" as="geometry" />
        </mxCell>
        <mxCell id="vWCauvzo7gH51iAdeTeT-22" value="This is to prevent whales from buying and dumping tokens" style="text;html=1;strokeColor=none;fillColor=none;align=center;verticalAlign=middle;whiteSpace=wrap;rounded=0;hachureGap=4;pointerEvents=0;" parent="1" vertex="1">
          <mxGeometry x="640" y="95" width="180" height="20" as="geometry" />
        </mxCell>
        <mxCell id="vWCauvzo7gH51iAdeTeT-23" value="" style="endArrow=none;html=1;startSize=6;endSize=6;sourcePerimeterSpacing=8;targetPerimeterSpacing=8;exitX=1;exitY=0.5;exitDx=0;exitDy=0;entryX=0;entryY=0.5;entryDx=0;entryDy=0;" parent="1" source="vWCauvzo7gH51iAdeTeT-21" target="vWCauvzo7gH51iAdeTeT-22" edge="1">
          <mxGeometry width="50" height="50" relative="1" as="geometry">
            <mxPoint x="510" y="310" as="sourcePoint" />
            <mxPoint x="560" y="260" as="targetPoint" />
          </mxGeometry>
        </mxCell>
        <mxCell id="vWCauvzo7gH51iAdeTeT-27" value="" style="rounded=0;whiteSpace=wrap;html=1;hachureGap=4;pointerEvents=0;strokeColor=#AD4F4B;strokeWidth=1;fillColor=none;" parent="1" vertex="1">
          <mxGeometry x="325" y="70" width="505" height="70" as="geometry" />
        </mxCell>
        <mxCell id="vWCauvzo7gH51iAdeTeT-28" value="" style="endArrow=classic;html=1;startSize=6;endSize=6;sourcePerimeterSpacing=8;targetPerimeterSpacing=8;exitX=0.542;exitY=1;exitDx=0;exitDy=0;exitPerimeter=0;" parent="1" source="vWCauvzo7gH51iAdeTeT-27" target="vWCauvzo7gH51iAdeTeT-29" edge="1">
          <mxGeometry width="50" height="50" relative="1" as="geometry">
            <mxPoint x="510" y="310" as="sourcePoint" />
            <mxPoint x="599" y="240" as="targetPoint" />
          </mxGeometry>
        </mxCell>
        <mxCell id="vWCauvzo7gH51iAdeTeT-29" value="How do you prevent user from having multiple addresses?" style="text;html=1;strokeColor=none;fillColor=none;align=center;verticalAlign=middle;whiteSpace=wrap;rounded=0;hachureGap=4;pointerEvents=0;" parent="1" vertex="1">
          <mxGeometry x="541.5" y="230" width="121" height="70" as="geometry" />
        </mxCell>
        <mxCell id="vWCauvzo7gH51iAdeTeT-32" value="Staking pool" style="text;html=1;strokeColor=none;fillColor=none;align=center;verticalAlign=middle;whiteSpace=wrap;rounded=0;hachureGap=4;pointerEvents=0;" parent="1" vertex="1">
          <mxGeometry x="380" y="1200" width="40" height="20" as="geometry" />
        </mxCell>
        <mxCell id="vWCauvzo7gH51iAdeTeT-33" value="" style="endArrow=classic;html=1;startSize=6;endSize=6;sourcePerimeterSpacing=8;targetPerimeterSpacing=8;exitX=0.977;exitY=0.669;exitDx=0;exitDy=0;exitPerimeter=0;entryX=0.44;entryY=-0.058;entryDx=0;entryDy=0;entryPerimeter=0;" parent="1" source="vWCauvzo7gH51iAdeTeT-30" target="vWCauvzo7gH51iAdeTeT-40" edge="1">
          <mxGeometry width="50" height="50" relative="1" as="geometry">
            <mxPoint x="492.5" y="1200" as="sourcePoint" />
            <mxPoint x="592.5" y="1340" as="targetPoint" />
          </mxGeometry>
        </mxCell>
        <mxCell id="vWCauvzo7gH51iAdeTeT-34" value="" style="endArrow=classic;html=1;startSize=6;endSize=6;sourcePerimeterSpacing=8;targetPerimeterSpacing=8;exitX=0;exitY=1;exitDx=0;exitDy=0;entryX=0.565;entryY=-0.008;entryDx=0;entryDy=0;entryPerimeter=0;" parent="1" source="vWCauvzo7gH51iAdeTeT-30" target="vWCauvzo7gH51iAdeTeT-39" edge="1">
          <mxGeometry width="50" height="50" relative="1" as="geometry">
            <mxPoint x="469.2399999999998" y="1242.48" as="sourcePoint" />
            <mxPoint x="212.5" y="1340" as="targetPoint" />
          </mxGeometry>
        </mxCell>
        <mxCell id="vWCauvzo7gH51iAdeTeT-38" value="6 months" style="shape=parallelogram;perimeter=parallelogramPerimeter;whiteSpace=wrap;html=1;fixedSize=1;hachureGap=4;pointerEvents=0;strokeColor=#000000;strokeWidth=1;fillColor=default;" parent="1" vertex="1">
          <mxGeometry x="343" y="1340" width="120" height="60" as="geometry" />
        </mxCell>
        <mxCell id="vWCauvzo7gH51iAdeTeT-39" value="12 months&amp;nbsp;" style="shape=parallelogram;perimeter=parallelogramPerimeter;whiteSpace=wrap;html=1;fixedSize=1;hachureGap=4;pointerEvents=0;strokeColor=#000000;strokeWidth=1;fillColor=default;" parent="1" vertex="1">
          <mxGeometry x="155.5" y="1320" width="120" height="60" as="geometry" />
        </mxCell>
        <mxCell id="vWCauvzo7gH51iAdeTeT-40" value="9 months" style="shape=parallelogram;perimeter=parallelogramPerimeter;whiteSpace=wrap;html=1;fixedSize=1;hachureGap=4;pointerEvents=0;strokeColor=#000000;strokeWidth=1;fillColor=default;" parent="1" vertex="1">
          <mxGeometry x="534.5" y="1320" width="120" height="60" as="geometry" />
        </mxCell>
        <mxCell id="vWCauvzo7gH51iAdeTeT-30" value="Staking Pool&lt;br&gt;" style="ellipse;whiteSpace=wrap;html=1;hachureGap=4;pointerEvents=0;strokeColor=#000000;strokeWidth=1;fillColor=default;" parent="1" vertex="1">
          <mxGeometry x="347.5" y="1150" width="120" height="80" as="geometry" />
        </mxCell>
        <mxCell id="vWCauvzo7gH51iAdeTeT-41" value="" style="endArrow=none;html=1;startSize=6;endSize=6;sourcePerimeterSpacing=8;" parent="1" target="vWCauvzo7gH51iAdeTeT-30" edge="1">
          <mxGeometry width="50" height="50" relative="1" as="geometry">
            <mxPoint x="404.5" y="1150" as="sourcePoint" />
            <mxPoint x="404.5" y="1358" as="targetPoint" />
          </mxGeometry>
        </mxCell>
        <mxCell id="vWCauvzo7gH51iAdeTeT-42" value="" style="rounded=0;whiteSpace=wrap;html=1;hachureGap=4;pointerEvents=0;strokeColor=#000000;strokeWidth=1;fillColor=none;dashed=1;" parent="1" vertex="1">
          <mxGeometry x="82.5" y="1110" width="650" height="300" as="geometry" />
        </mxCell>
        <mxCell id="vWCauvzo7gH51iAdeTeT-43" value="&lt;b&gt;withdrawing from Staking pool before contract period expires will result in 40% fine&lt;/b&gt;" style="text;html=1;strokeColor=none;fillColor=none;align=center;verticalAlign=middle;whiteSpace=wrap;rounded=0;dashed=1;hachureGap=4;pointerEvents=0;" parent="1" vertex="1">
          <mxGeometry x="95" y="1120" width="147.5" height="60" as="geometry" />
        </mxCell>
        <mxCell id="vWCauvzo7gH51iAdeTeT-45" value="Contract" style="text;html=1;strokeColor=none;fillColor=none;align=center;verticalAlign=middle;whiteSpace=wrap;rounded=0;dashed=1;hachureGap=4;pointerEvents=0;rotation=45;" parent="1" vertex="1">
          <mxGeometry x="492.5" y="1230" width="60" height="20" as="geometry" />
        </mxCell>
        <mxCell id="vWCauvzo7gH51iAdeTeT-47" value="Contract" style="text;html=1;strokeColor=none;fillColor=none;align=center;verticalAlign=middle;whiteSpace=wrap;rounded=0;dashed=1;hachureGap=4;pointerEvents=0;rotation=-30;" parent="1" vertex="1">
          <mxGeometry x="242.5" y="1250" width="60" height="20" as="geometry" />
        </mxCell>
        <mxCell id="vWCauvzo7gH51iAdeTeT-48" value="Contract" style="text;html=1;strokeColor=none;fillColor=none;align=center;verticalAlign=middle;whiteSpace=wrap;rounded=0;dashed=1;hachureGap=4;pointerEvents=0;rotation=90;" parent="1" vertex="1">
          <mxGeometry x="387.5" y="1260" width="60" height="20" as="geometry" />
        </mxCell>
        <mxCell id="pvBQROD-User7r6prkA2-1" value="Total: &lt;b&gt;33.3 million&lt;/b&gt;&lt;br&gt;Private Sale: &lt;b&gt;8.325 million&lt;/b&gt;&lt;br&gt;&lt;div&gt;&lt;span&gt;&amp;nbsp;Devs: &lt;b&gt;999000 &lt;/b&gt;after all distributions&lt;/span&gt;&lt;/div&gt;Remaining Token launch&lt;br&gt;" style="text;html=1;strokeColor=none;fillColor=none;align=center;verticalAlign=middle;whiteSpace=wrap;rounded=0;" vertex="1" parent="1">
          <mxGeometry x="102.5" y="350" width="200" height="60" as="geometry" />
        </mxCell>
        <mxCell id="pvBQROD-User7r6prkA2-3" value="" style="endArrow=classic;html=1;startSize=6;endSize=6;sourcePerimeterSpacing=8;targetPerimeterSpacing=8;entryX=1;entryY=0.5;entryDx=0;entryDy=0;exitX=-0.006;exitY=0.445;exitDx=0;exitDy=0;exitPerimeter=0;" edge="1" parent="1" source="vWCauvzo7gH51iAdeTeT-1" target="pvBQROD-User7r6prkA2-1">
          <mxGeometry width="50" height="50" relative="1" as="geometry">
            <mxPoint x="397.5" y="500" as="sourcePoint" />
            <mxPoint x="160.5" y="500" as="targetPoint" />
          </mxGeometry>
        </mxCell>
        <mxCell id="pvBQROD-User7r6prkA2-6" value="" style="endArrow=classic;html=1;startSize=6;endSize=6;sourcePerimeterSpacing=8;targetPerimeterSpacing=8;entryX=0.08;entryY=0.203;entryDx=0;entryDy=0;entryPerimeter=0;" edge="1" parent="1" target="pvBQROD-User7r6prkA2-7">
          <mxGeometry width="50" height="50" relative="1" as="geometry">
            <mxPoint x="118.13" y="670" as="sourcePoint" />
            <mxPoint x="358.13" y="790" as="targetPoint" />
            <Array as="points" />
          </mxGeometry>
        </mxCell>
        <mxCell id="pvBQROD-User7r6prkA2-7" value="14% of Total of every buy &amp;amp; sell tranx" style="ellipse;whiteSpace=wrap;html=1;" vertex="1" parent="1">
          <mxGeometry x="366.5700000000001" y="790" width="120" height="80" as="geometry" />
        </mxCell>
        <mxCell id="pvBQROD-User7r6prkA2-8" value="" style="endArrow=classic;html=1;startSize=6;endSize=6;sourcePerimeterSpacing=8;targetPerimeterSpacing=8;entryX=0.488;entryY=0;entryDx=0;entryDy=0;entryPerimeter=0;" edge="1" parent="1" target="vWCauvzo7gH51iAdeTeT-42">
          <mxGeometry width="50" height="50" relative="1" as="geometry">
            <mxPoint x="100" y="680" as="sourcePoint" />
            <mxPoint x="240" y="1100" as="targetPoint" />
            <Array as="points">
              <mxPoint x="100" y="960" />
            </Array>
          </mxGeometry>
        </mxCell>
        <mxCell id="pvBQROD-User7r6prkA2-9" value="86% goes to the staking pool" style="text;html=1;strokeColor=none;fillColor=none;align=center;verticalAlign=middle;whiteSpace=wrap;rounded=0;rotation=25;" vertex="1" parent="1">
          <mxGeometry x="145.5" y="940" width="130" height="90" as="geometry" />
        </mxCell>
        <mxCell id="pvBQROD-User7r6prkA2-12" value="" style="endArrow=classic;html=1;rounded=0;edgeStyle=orthogonalEdgeStyle;" edge="1" parent="1" source="vWCauvzo7gH51iAdeTeT-42">
          <mxGeometry relative="1" as="geometry">
            <mxPoint x="480" y="1550" as="sourcePoint" />
            <mxPoint x="770" y="629.4047619047619" as="targetPoint" />
            <Array as="points">
              <mxPoint x="408" y="1520" />
              <mxPoint x="800" y="1520" />
            </Array>
          </mxGeometry>
        </mxCell>
        <mxCell id="pvBQROD-User7r6prkA2-13" value="Withdraw" style="edgeLabel;resizable=0;html=1;align=center;verticalAlign=middle;" connectable="0" vertex="1" parent="pvBQROD-User7r6prkA2-12">
          <mxGeometry relative="1" as="geometry" />
        </mxCell>
        <mxCell id="pvBQROD-User7r6prkA2-16" value="When the contract period expires" style="text;html=1;align=center;verticalAlign=middle;resizable=0;points=[];autosize=1;strokeColor=none;fillColor=none;" vertex="1" parent="1">
          <mxGeometry x="515" y="1500" width="190" height="20" as="geometry" />
        </mxCell>
        <mxCell id="pvBQROD-User7r6prkA2-17" value="" style="endArrow=classic;html=1;startSize=6;endSize=6;sourcePerimeterSpacing=8;targetPerimeterSpacing=8;" edge="1" parent="1">
          <mxGeometry width="50" height="50" relative="1" as="geometry">
            <mxPoint x="424.0800000000001" y="870" as="sourcePoint" />
            <mxPoint x="424" y="920" as="targetPoint" />
            <Array as="points" />
          </mxGeometry>
        </mxCell>
        <mxCell id="pvBQROD-User7r6prkA2-18" value="" style="endArrow=classic;html=1;startSize=6;endSize=6;sourcePerimeterSpacing=8;targetPerimeterSpacing=8;exitX=0.5;exitY=0;exitDx=0;exitDy=0;" edge="1" parent="1" source="pvBQROD-User7r6prkA2-7">
          <mxGeometry width="50" height="50" relative="1" as="geometry">
            <mxPoint x="434.0800000000002" y="880" as="sourcePoint" />
            <mxPoint x="427" y="750" as="targetPoint" />
            <Array as="points" />
          </mxGeometry>
        </mxCell>
        <mxCell id="pvBQROD-User7r6prkA2-20" value="" style="endArrow=classic;html=1;startSize=6;endSize=6;sourcePerimeterSpacing=8;targetPerimeterSpacing=8;" edge="1" parent="1">
          <mxGeometry width="50" height="50" relative="1" as="geometry">
            <mxPoint x="366.1000000000002" y="830" as="sourcePoint" />
            <mxPoint x="300" y="830" as="targetPoint" />
            <Array as="points" />
          </mxGeometry>
        </mxCell>
        <mxCell id="pvBQROD-User7r6prkA2-22" value="" style="endArrow=classic;html=1;startSize=6;endSize=6;sourcePerimeterSpacing=8;targetPerimeterSpacing=8;" edge="1" parent="1">
          <mxGeometry width="50" height="50" relative="1" as="geometry">
            <mxPoint x="486.5700000000002" y="829.76" as="sourcePoint" />
            <mxPoint x="560" y="830" as="targetPoint" />
            <Array as="points" />
          </mxGeometry>
        </mxCell>
        <mxCell id="pvBQROD-User7r6prkA2-23" value="2% distributed to Holders" style="text;html=1;strokeColor=none;fillColor=none;align=center;verticalAlign=middle;whiteSpace=wrap;rounded=0;" vertex="1" parent="1">
          <mxGeometry x="397.5" y="700" width="60" height="50" as="geometry" />
        </mxCell>
        <mxCell id="pvBQROD-User7r6prkA2-25" value="4% to Makreting" style="text;html=1;strokeColor=none;fillColor=none;align=center;verticalAlign=middle;whiteSpace=wrap;rounded=0;" vertex="1" parent="1">
          <mxGeometry x="242.5" y="815" width="60" height="30" as="geometry" />
        </mxCell>
        <mxCell id="pvBQROD-User7r6prkA2-26" value="4% to LP" style="text;html=1;strokeColor=none;fillColor=none;align=center;verticalAlign=middle;whiteSpace=wrap;rounded=0;" vertex="1" parent="1">
          <mxGeometry x="392.5" y="920" width="60" height="30" as="geometry" />
        </mxCell>
        <mxCell id="pvBQROD-User7r6prkA2-27" value="4% to ETH/BTC Reward Pool" style="text;html=1;strokeColor=none;fillColor=none;align=center;verticalAlign=middle;whiteSpace=wrap;rounded=0;" vertex="1" parent="1">
          <mxGeometry x="560" y="815" width="110" height="30" as="geometry" />
        </mxCell>
        <mxCell id="pvBQROD-User7r6prkA2-28" value="Seller" style="shape=umlActor;verticalLabelPosition=bottom;verticalAlign=top;html=1;outlineConnect=0;hachureGap=4;pointerEvents=0;" vertex="1" parent="1">
          <mxGeometry x="170" y="1590" width="27.5" height="60" as="geometry" />
        </mxCell>
        <mxCell id="pvBQROD-User7r6prkA2-29" value="" style="endArrow=classic;html=1;startSize=6;endSize=6;targetPerimeterSpacing=8;startArrow=none;strokeColor=#FF0000;" edge="1" parent="1">
          <mxGeometry width="50" height="50" relative="1" as="geometry">
            <mxPoint x="184.83815665935603" y="1409.996775383806" as="sourcePoint" />
            <mxPoint x="183" y="1580" as="targetPoint" />
          </mxGeometry>
        </mxCell>
        <mxCell id="pvBQROD-User7r6prkA2-31" value="&lt;font color=&quot;#ff3333&quot;&gt;If seller withdraws before contract period expiry&lt;/font&gt;" style="edgeLabel;html=1;align=center;verticalAlign=middle;resizable=0;points=[];" vertex="1" connectable="0" parent="pvBQROD-User7r6prkA2-29">
          <mxGeometry x="0.1317" y="-2" relative="1" as="geometry">
            <mxPoint x="2" y="-36" as="offset" />
          </mxGeometry>
        </mxCell>
        <mxCell id="pvBQROD-User7r6prkA2-32" value="&lt;font color=&quot;#ff3333&quot;&gt;40% deducted&lt;/font&gt;" style="edgeLabel;html=1;align=center;verticalAlign=middle;resizable=0;points=[];" vertex="1" connectable="0" parent="1">
          <mxGeometry x="183.74827664061826" y="1520.0000055667724" as="geometry" />
        </mxCell>
        <mxCell id="pvBQROD-User7r6prkA2-33" value="&lt;font color=&quot;#000000&quot;&gt;The contract staking period prevents whales from withdrawing&amp;nbsp;&lt;/font&gt;" style="text;html=1;strokeColor=none;fillColor=none;align=center;verticalAlign=middle;whiteSpace=wrap;rounded=0;fontColor=#FF3333;" vertex="1" parent="1">
          <mxGeometry x="720" y="210" width="120" height="110" as="geometry" />
        </mxCell>
        <mxCell id="pvBQROD-User7r6prkA2-34" value="" style="endArrow=classic;html=1;startSize=6;endSize=6;sourcePerimeterSpacing=8;targetPerimeterSpacing=8;entryX=0;entryY=0.5;entryDx=0;entryDy=0;" edge="1" parent="1" target="pvBQROD-User7r6prkA2-33">
          <mxGeometry width="50" height="50" relative="1" as="geometry">
            <mxPoint x="663" y="265" as="sourcePoint" />
            <mxPoint x="664.65824" y="350" as="targetPoint" />
          </mxGeometry>
        </mxCell>
      </root>
    </mxGraphModel>
  </diagram>
</mxfile>
